<?xml version="1.0" encoding="UTF-8" standalone="no"?>
<!DOCTYPE svg PUBLIC "-//W3C//DTD SVG 1.1//EN" "http://www.w3.org/Graphics/SVG/1.1/DTD/svg11.dtd">
<svg width="100%" height="100%" viewBox="0 0 512 512" version="1.1" xmlns="http://www.w3.org/2000/svg" xmlns:xlink="http://www.w3.org/1999/xlink" xml:space="preserve" xmlns:serif="http://www.serif.com/" style="fill-rule:evenodd;clip-rule:evenodd;stroke-linecap:round;stroke-linejoin:round;stroke-miterlimit:1.5;">
    <g id="BG" transform="matrix(0.789037,0,0,0.946215,63.3621,25.498)">
        <rect x="-80.303" y="-26.947" width="648.893" height="541.103" style="fill:rgb(252,198,0);stroke:black;stroke-width:45.91px;"/>
    </g>
    <g id="Eyes" transform="matrix(0.908931,0,0,0.908931,6.79676,47.6877)">
        <g transform="matrix(1.23698,0,0,1.36432,45.8184,-11.9776)">
            <g id="Eye-1" serif:id="Eye 1">
                <path id="Eye-11" serif:id="Eye 1" d="M140.665,70.722C140.665,66.161 136.588,62.464 131.558,62.464L68.931,62.464C63.901,62.464 59.823,66.161 59.823,70.722L59.823,127.503C59.823,132.064 63.901,135.761 68.931,135.761L131.558,135.761C136.588,135.761 140.665,132.064 140.665,127.503L140.665,70.722Z" style="fill:rgb(102,255,255);"/>
                <clipPath id="_clip1">
                    <path id="Eye-12" serif:id="Eye 1" d="M140.665,70.722C140.665,66.161 136.588,62.464 131.558,62.464L68.931,62.464C63.901,62.464 59.823,66.161 59.823,70.722L59.823,127.503C59.823,132.064 63.901,135.761 68.931,135.761L131.558,135.761C136.588,135.761 140.665,132.064 140.665,127.503L140.665,70.722Z"/>
                </clipPath>
                <g clip-path="url(#_clip1)">
                    <g id="Eye-Shadow-1" serif:id="Eye Shadow 1" transform="matrix(0.162641,0,0,0.789619,49.8815,1.80904)">
                        <rect x="82.434" y="78.601" width="59.692" height="89.361" style="fill:rgb(81,204,204);"/>
                    </g>
                    <g id="Eye-Shadow-11" serif:id="Eye Shadow 1" transform="matrix(9.95888e-18,-0.147461,0.870904,4.83502e-17,-6.86506,145.756)">
                        <rect x="82.434" y="78.601" width="59.692" height="89.361" style="fill:rgb(81,204,204);"/>
                    </g>
                </g>
                <path id="Eye-13" serif:id="Eye 1" d="M140.665,70.722C140.665,66.161 136.588,62.464 131.558,62.464L68.931,62.464C63.901,62.464 59.823,66.161 59.823,70.722L59.823,127.503C59.823,132.064 63.901,135.761 68.931,135.761L131.558,135.761C136.588,135.761 140.665,132.064 140.665,127.503L140.665,70.722Z" style="fill:none;stroke:black;stroke-width:7.12px;"/>
            </g>
        </g>
        <g transform="matrix(1.23698,0,0,1.36432,242.042,-11.9776)">
            <g id="Eye-2" serif:id="Eye 2">
                <path id="Eye-21" serif:id="Eye 2" d="M140.665,70.722C140.665,66.161 136.588,62.464 131.558,62.464L68.931,62.464C63.901,62.464 59.823,66.161 59.823,70.722L59.823,127.503C59.823,132.064 63.901,135.761 68.931,135.761L131.558,135.761C136.588,135.761 140.665,132.064 140.665,127.503L140.665,70.722Z" style="fill:rgb(102,255,255);"/>
                <clipPath id="_clip2">
                    <path id="Eye-22" serif:id="Eye 2" d="M140.665,70.722C140.665,66.161 136.588,62.464 131.558,62.464L68.931,62.464C63.901,62.464 59.823,66.161 59.823,70.722L59.823,127.503C59.823,132.064 63.901,135.761 68.931,135.761L131.558,135.761C136.588,135.761 140.665,132.064 140.665,127.503L140.665,70.722Z"/>
                </clipPath>
                <g clip-path="url(#_clip2)">
                    <g id="Eye-Shadow-12" serif:id="Eye Shadow 1" transform="matrix(0.162641,0,0,0.789619,48.8981,1.80904)">
                        <rect x="82.434" y="78.601" width="59.692" height="89.361" style="fill:rgb(81,204,204);"/>
                    </g>
                    <g id="Eye-Shadow-13" serif:id="Eye Shadow 1" transform="matrix(9.95888e-18,-0.147461,0.870904,4.83502e-17,-7.84847,145.756)">
                        <rect x="82.434" y="78.601" width="59.692" height="89.361" style="fill:rgb(81,204,204);"/>
                    </g>
                </g>
                <path id="Eye-23" serif:id="Eye 2" d="M140.665,70.722C140.665,66.161 136.588,62.464 131.558,62.464L68.931,62.464C63.901,62.464 59.823,66.161 59.823,70.722L59.823,127.503C59.823,132.064 63.901,135.761 68.931,135.761L131.558,135.761C136.588,135.761 140.665,132.064 140.665,127.503L140.665,70.722Z" style="fill:none;stroke:black;stroke-width:7.12px;"/>
            </g>
        </g>
    </g>
    <g transform="matrix(0.918854,0,0,0.855034,20.6744,5.95882)">
        <g id="Mouth">
            <path id="Mouth1" serif:id="Mouth" d="M418.055,314.64C418.055,306.987 412.282,300.782 405.16,300.782C352.061,300.782 150.625,300.782 97.525,300.782C90.404,300.782 84.63,306.987 84.63,314.64C84.63,331.444 84.63,359.599 84.63,376.403C84.63,384.057 90.404,390.261 97.525,390.261C150.625,390.261 352.061,390.261 405.16,390.261C412.282,390.261 418.055,384.057 418.055,376.403C418.055,359.599 418.055,331.444 418.055,314.64Z" style="fill:rgb(102,255,255);"/>
            <clipPath id="_clip3">
                <path id="Mouth2" serif:id="Mouth" d="M418.055,314.64C418.055,306.987 412.282,300.782 405.16,300.782C352.061,300.782 150.625,300.782 97.525,300.782C90.404,300.782 84.63,306.987 84.63,314.64C84.63,331.444 84.63,359.599 84.63,376.403C84.63,384.057 90.404,390.261 97.525,390.261C150.625,390.261 352.061,390.261 405.16,390.261C412.282,390.261 418.055,384.057 418.055,376.403C418.055,359.599 418.055,331.444 418.055,314.64Z"/>
            </clipPath>
            <g clip-path="url(#_clip3)">
                <g id="Eye-Shadow-14" serif:id="Eye Shadow 1" transform="matrix(1.23189e-17,-0.201183,3.62801,2.22152e-16,-196.356,404.453)">
                    <rect x="82.434" y="78.601" width="59.692" height="89.361" style="fill:rgb(81,204,204);"/>
                </g>
                <g id="Eye-Shadow-2" serif:id="Eye Shadow 2" transform="matrix(0.168284,2.90423e-33,4.12412e-32,0.976947,390.93,224.956)">
                    <rect x="82.434" y="78.601" width="59.692" height="89.361" style="fill:rgb(81,204,204);"/>
                </g>
            </g>
            <path id="Mouth3" serif:id="Mouth" d="M418.055,314.64C418.055,306.987 412.282,300.782 405.16,300.782C352.061,300.782 150.625,300.782 97.525,300.782C90.404,300.782 84.63,306.987 84.63,314.64C84.63,331.444 84.63,359.599 84.63,376.403C84.63,384.057 90.404,390.261 97.525,390.261C150.625,390.261 352.061,390.261 405.16,390.261C412.282,390.261 418.055,384.057 418.055,376.403C418.055,359.599 418.055,331.444 418.055,314.64Z" style="fill:none;stroke:black;stroke-width:9.46px;"/>
        </g>
    </g>
</svg>
